<svg width="476" height="322" viewBox="0 0 476 322" fill="none" xmlns="http://www.w3.org/2000/svg">
<rect width="476" height="322" rx="8" fill="white"/>
<rect width="428" height="1" transform="translate(24 24.5)" fill="black" fill-opacity="0.1"/>
<rect width="428" height="1" transform="translate(24 66.5)" fill="black" fill-opacity="0.1"/>
<rect width="428" height="1" transform="translate(24 108.5)" fill="black" fill-opacity="0.1"/>
<rect width="428" height="1" transform="translate(24 150.5)" fill="black" fill-opacity="0.1"/>
<rect width="428" height="1" transform="translate(24 192.5)" fill="black" fill-opacity="0.1"/>
<rect width="428" height="1" transform="translate(24 234.5)" fill="black" fill-opacity="0.1"/>
<rect width="428" height="1" transform="translate(24 276.5)" fill="black" fill-opacity="0.1"/>
<path d="M65.2966 292.2V299.69C65.2966 300.446 65.1006 301.02 64.7086 301.412C64.3166 301.804 63.7426 302 62.9866 302H61.7126V300.852H62.8326C63.2713 300.852 63.5886 300.754 63.7846 300.558C63.9806 300.353 64.0786 300.031 64.0786 299.592V292.2H65.2966ZM73.7052 300.95V302H73.0752C72.6178 302 72.2912 301.907 72.0952 301.72C71.8992 301.533 71.7965 301.258 71.7872 300.894C71.2365 301.687 70.4385 302.084 69.3932 302.084C68.5998 302.084 67.9605 301.897 67.4752 301.524C66.9992 301.151 66.7612 300.642 66.7612 299.998C66.7612 299.279 67.0038 298.729 67.4892 298.346C67.9838 297.963 68.6978 297.772 69.6312 297.772H71.7312V297.282C71.7312 296.815 71.5725 296.451 71.2552 296.19C70.9472 295.929 70.5132 295.798 69.9532 295.798C69.4585 295.798 69.0478 295.91 68.7212 296.134C68.4038 296.349 68.2078 296.638 68.1332 297.002H66.9852C67.0692 296.302 67.3772 295.756 67.9092 295.364C68.4505 294.972 69.1505 294.776 70.0092 294.776C70.9238 294.776 71.6285 295 72.1232 295.448C72.6272 295.887 72.8792 296.521 72.8792 297.352V300.432C72.8792 300.777 73.0378 300.95 73.3552 300.95H73.7052ZM71.7312 298.738H69.5192C68.4552 298.738 67.9232 299.135 67.9232 299.928C67.9232 300.283 68.0632 300.567 68.3432 300.782C68.6232 300.997 69.0012 301.104 69.4772 301.104C70.1772 301.104 70.7278 300.922 71.1292 300.558C71.5305 300.185 71.7312 299.695 71.7312 299.088V298.738ZM78.0877 294.776C78.9557 294.776 79.651 295.037 80.1737 295.56C80.7057 296.083 80.9717 296.904 80.9717 298.024V302H79.8237V298.094C79.8237 297.357 79.6557 296.797 79.3197 296.414C78.993 296.022 78.517 295.826 77.8917 295.826C77.2197 295.826 76.6924 296.059 76.3097 296.526C75.927 296.993 75.7357 297.627 75.7357 298.43V302H74.5877V294.86H75.5817L75.7357 295.826C76.277 295.126 77.061 294.776 78.0877 294.776Z" fill="black" fill-opacity="0.6"/>
<path d="M171.539 302L175.277 292.2H176.719L180.443 302H179.141L178.105 299.354H173.835L172.799 302H171.539ZM174.199 298.248H177.741L175.963 293.53L174.199 298.248ZM184.982 294.776C185.644 294.776 186.232 294.921 186.746 295.21C187.268 295.499 187.674 295.919 187.964 296.47C188.262 297.021 188.412 297.674 188.412 298.43C188.412 299.149 188.262 299.783 187.964 300.334C187.674 300.885 187.268 301.314 186.746 301.622C186.223 301.93 185.635 302.084 184.982 302.084C184.403 302.084 183.908 301.981 183.498 301.776C183.087 301.561 182.765 301.272 182.532 300.908V304.8H181.384V294.86H182.378L182.532 296.008C183.129 295.187 183.946 294.776 184.982 294.776ZM184.87 301.062C185.579 301.062 186.148 300.819 186.578 300.334C187.016 299.839 187.236 299.205 187.236 298.43C187.236 297.655 187.016 297.025 186.578 296.54C186.148 296.045 185.579 295.798 184.87 295.798C184.412 295.798 184.002 295.91 183.638 296.134C183.283 296.349 183.008 296.657 182.812 297.058C182.616 297.45 182.518 297.898 182.518 298.402C182.518 298.915 182.616 299.377 182.812 299.788C183.008 300.189 183.283 300.502 183.638 300.726C184.002 300.95 184.412 301.062 184.87 301.062ZM193.349 294.86V295.98H192.775C192.094 295.98 191.604 296.209 191.305 296.666C191.016 297.123 190.871 297.688 190.871 298.36V302H189.723V294.86H190.717L190.871 295.938C191.077 295.611 191.343 295.35 191.669 295.154C191.996 294.958 192.449 294.86 193.027 294.86H193.349Z" fill="black" fill-opacity="0.6"/>
<path d="M289.785 292.2V299.69C289.785 300.446 289.589 301.02 289.197 301.412C288.805 301.804 288.231 302 287.475 302H286.201V300.852H287.321C287.76 300.852 288.077 300.754 288.273 300.558C288.469 300.353 288.567 300.031 288.567 299.592V292.2H289.785ZM297.661 294.86V302H296.667L296.513 301.048C295.972 301.739 295.211 302.084 294.231 302.084C293.382 302.084 292.701 301.823 292.187 301.3C291.674 300.777 291.417 299.956 291.417 298.836V294.86H292.565V298.766C292.565 299.503 292.724 300.068 293.041 300.46C293.368 300.843 293.83 301.034 294.427 301.034C295.081 301.034 295.589 300.801 295.953 300.334C296.327 299.867 296.513 299.233 296.513 298.43V294.86H297.661ZM299.226 292.2H300.374V302H299.226V292.2Z" fill="black" fill-opacity="0.6"/>
<path d="M403.092 297.1C403.092 298.052 402.892 298.906 402.49 299.662C402.098 300.418 401.548 301.011 400.838 301.44C400.129 301.869 399.322 302.084 398.416 302.084C397.511 302.084 396.704 301.869 395.994 301.44C395.285 301.011 394.73 300.418 394.328 299.662C393.936 298.906 393.74 298.052 393.74 297.1C393.74 296.148 393.936 295.294 394.328 294.538C394.73 293.782 395.285 293.189 395.994 292.76C396.704 292.331 397.511 292.116 398.416 292.116C399.322 292.116 400.129 292.331 400.838 292.76C401.548 293.189 402.098 293.782 402.49 294.538C402.892 295.294 403.092 296.148 403.092 297.1ZM394.986 297.1C394.986 297.847 395.131 298.514 395.42 299.102C395.71 299.681 396.111 300.138 396.624 300.474C397.147 300.801 397.744 300.964 398.416 300.964C399.088 300.964 399.681 300.801 400.194 300.474C400.717 300.138 401.123 299.681 401.412 299.102C401.702 298.514 401.846 297.847 401.846 297.1C401.846 296.353 401.702 295.691 401.412 295.112C401.123 294.524 400.717 294.067 400.194 293.74C399.681 293.404 399.088 293.236 398.416 293.236C397.744 293.236 397.147 293.404 396.624 293.74C396.111 294.067 395.71 294.524 395.42 295.112C395.131 295.691 394.986 296.353 394.986 297.1ZM410.834 299.536C410.684 300.329 410.334 300.955 409.784 301.412C409.233 301.86 408.533 302.084 407.684 302.084C406.993 302.084 406.386 301.93 405.864 301.622C405.341 301.314 404.935 300.885 404.646 300.334C404.356 299.774 404.212 299.135 404.212 298.416C404.212 297.697 404.356 297.063 404.646 296.512C404.944 295.961 405.36 295.537 405.892 295.238C406.424 294.93 407.035 294.776 407.726 294.776C408.566 294.776 409.256 295 409.798 295.448C410.348 295.896 410.694 296.512 410.834 297.296H409.672C409.56 296.839 409.326 296.475 408.972 296.204C408.617 295.933 408.188 295.798 407.684 295.798C407.002 295.798 406.447 296.041 406.018 296.526C405.598 297.011 405.388 297.641 405.388 298.416C405.388 299.2 405.598 299.839 406.018 300.334C406.447 300.819 407.002 301.062 407.684 301.062C408.206 301.062 408.645 300.927 409 300.656C409.354 300.385 409.583 300.012 409.686 299.536H410.834ZM412.637 295.91H411.349V294.86H412.637V292.858H413.785V294.86H415.591V295.91H413.785V300.124C413.785 300.423 413.841 300.637 413.953 300.768C414.074 300.889 414.28 300.95 414.569 300.95H415.815V302H414.499C413.827 302 413.346 301.851 413.057 301.552C412.777 301.253 412.637 300.782 412.637 300.138V295.91Z" fill="black" fill-opacity="0.6"/>
<path d="M24 277C34.5419 249.483 83.5745 174.326 184.773 122.398C286.62 70.1383 346.516 72.3884 452 25" stroke="#336BB8" stroke-width="2"/>
<path d="M24 277C30.859 256.549 58.1335 210.44 112.36 189.607C180.143 163.566 199.751 177.69 237.032 165.331C274.312 152.972 322.244 141.938 365.577 135.317C400.243 130.021 437.637 99.5655 452 85" stroke="#179F61" stroke-width="2"/>
</svg>
